<?xml version="1.0" encoding="utf-8"?>
<!-- Generator: Adobe Illustrator 23.0.1, SVG Export Plug-In . SVG Version: 6.00 Build 0)  -->
<svg version="1.1" xmlns="http://www.w3.org/2000/svg" xmlns:xlink="http://www.w3.org/1999/xlink" x="0px" y="0px"
	 viewBox="0 0 842 373.16" style="enable-background:new 0 0 842 373.16;" xml:space="preserve">
<style type="text/css">
	.st0{display:none;}
	.st1{fill-rule:evenodd;clip-rule:evenodd;fill:#F08000;}
	.st2{fill:#333333;}
	.st3{display:inline;}
	.st4{fill:#F08000;}
</style>
<g id="Repères_du_plan_de_travail" class="st0">
</g>
<g id="Layer_1">
	<path class="st1" d="M777.37,278.02h31.64l-50.45-71.42L842,70.22l-0.01,32.41l-0.05,218.98c0,15.13-12.53,28.75-27.61,27.53
		L429.5,317.67c-15.07-1.23-27.49-12.38-27.44-27.52l0.66-210.37c0.05-15.14,12.5-26.53,27.61-27.52l383.7-25.22
		c35.11-2.3,30.28,26.84,18.04,43.66l-86.07,118.21l-31.16-43.91h-31.4l46.5,65.87l-49.11,67.17h34.04l28.89-47.23L777.37,278.02
		L777.37,278.02z M635.24,280.28c3.15-0.43,6.3-1.09,9.45-1.95h0.03c3.13-0.89,6.2-2.02,9.17-3.37c2.97-1.35,5.87-2.93,8.69-4.74
		c2.83-1.82,5.51-3.9,8.02-6.23c2.49-2.31,4.83-4.88,7.02-7.71l0,0c2.19-2.81,4.15-5.88,5.87-9.21c1.72-3.33,3.21-6.9,4.46-10.72
		v-0.01c1.24-3.85,2.18-7.97,2.81-12.35c0.62-4.31,0.95-8.91,0.97-13.8v-0.02c-0.02-5.01-0.41-9.81-1.16-14.38
		c-0.77-4.62-1.91-9.01-3.44-13.16c-1.53-4.12-3.39-8-5.58-11.61c-2.19-3.61-4.7-6.93-7.51-9.95l-0.01-0.01
		c-2.85-3.04-5.97-5.72-9.36-8.06c-3.38-2.33-7.04-4.32-10.97-5.97l-0.01-0.01c-3.92-1.63-8.07-2.86-12.43-3.69
		c-4.32-0.82-8.87-1.24-13.65-1.26l-0.01-0.01c-4.56,0-8.99,0.4-13.28,1.2c-4.28,0.79-8.42,1.99-12.41,3.57
		c-3.99,1.59-7.74,3.55-11.23,5.85c-3.5,2.31-6.76,4.99-9.76,8.01c-3.05,3.07-5.74,6.45-8.09,10.15c-2.33,3.68-4.35,7.71-6.04,12.09
		c-1.7,4.36-2.98,9.02-3.84,13.97c-0.85,4.89-1.29,10.1-1.31,15.63v0.02c0.02,5.23,0.44,10.19,1.25,14.87
		c0.82,4.71,2.04,9.19,3.67,13.41c1.62,4.19,3.56,8.08,5.81,11.67c2.26,3.6,4.85,6.9,7.77,9.9c2.89,2.98,6.04,5.63,9.44,7.93
		c3.38,2.29,7,4.23,10.84,5.81l0.01,0.01c3.87,1.58,7.9,2.76,12.09,3.55c4.15,0.79,8.47,1.19,12.95,1.21l0.01,0.01h0.27
		C628.89,280.93,632.06,280.71,635.24,280.28L635.24,280.28z M618.73,257.72c2.4,0.58,4.92,0.88,7.54,0.9v-0.01h0.27v0.01
		c2.61-0.02,5.12-0.32,7.52-0.89c2.38-0.57,4.67-1.42,6.87-2.55l0,0c2.2-1.16,4.26-2.54,6.17-4.14c1.92-1.62,3.71-3.47,5.35-5.58
		c1.66-2.12,3.14-4.44,4.43-6.95c1.3-2.52,2.41-5.24,3.33-8.14c0.93-2.9,1.63-5.98,2.1-9.22h0c0.47-3.26,0.73-6.66,0.74-10.18h-0.01
		c0-2.16-0.1-4.31-0.31-6.42c-0.21-2.13-0.53-4.32-0.96-6.55l0,0c-0.44-2.18-1.01-4.34-1.69-6.47c-0.67-2.09-1.47-4.16-2.39-6.18
		l0.01,0c-0.92-2-1.97-3.91-3.14-5.71c-1.17-1.8-2.47-3.49-3.88-5.07c-1.38-1.54-2.91-2.93-4.6-4.17c-1.69-1.24-3.52-2.33-5.47-3.24
		l0,0.01c-1.94-0.9-4.04-1.59-6.28-2.05c-2.27-0.47-4.7-0.72-7.27-0.74c-3.18,0.02-6.15,0.37-8.9,1.05
		c-2.72,0.67-5.22,1.66-7.51,2.96l0,0c-2.32,1.35-4.44,2.92-6.36,4.71l0-0.01c-1.87,1.75-3.55,3.74-5.05,5.98l0,0
		c-1.5,2.25-2.81,4.64-3.92,7.17c-1.14,2.57-2.07,5.27-2.81,8.08c-0.75,2.85-1.31,5.72-1.67,8.6c-0.36,2.85-0.54,5.8-0.54,8.84
		h-0.01c0.02,3.39,0.26,6.67,0.71,9.83c0.45,3.14,1.12,6.15,2,9.01c0.88,2.84,1.96,5.5,3.22,8c1.26,2.47,2.7,4.76,4.33,6.86
		c1.59,2.07,3.33,3.91,5.23,5.52l0.01,0.01c1.89,1.61,3.93,2.99,6.12,4.14C614.07,256.28,616.35,257.14,618.73,257.72L618.73,257.72
		z M443.48,278.23c2.6,0.25,5.37,0.49,8.29,0.71h0.02c2.95,0.19,6.23,0.35,9.82,0.46c3.49,0.11,7.26,0.18,11.29,0.2l0.01,0.01
		c7.34,0,14.15-0.34,20.45-1.03c6.32-0.69,12.07-1.73,17.25-3.12c5.26-1.41,10-3.2,14.22-5.39c4.26-2.2,7.98-4.8,11.17-7.8l0,0
		c2.47-2.31,4.7-4.82,6.66-7.53c1.93-2.67,3.63-5.55,5.05-8.64c1.44-3.11,2.54-6.46,3.28-10.04c0.73-3.53,1.11-7.3,1.13-11.31v-0.02
		c-0.02-3.46-0.33-6.72-0.91-9.75v-0.01c-0.59-3.11-1.48-6.03-2.64-8.74l-0.01-0.02c-1.16-2.66-2.49-5.17-4.02-7.47l0,0
		c-1.53-2.33-3.26-4.46-5.17-6.37l-0.02-0.02c-1.88-1.9-3.86-3.63-5.93-5.19c-2.1-1.58-4.28-2.97-6.52-4.16l0,0.01
		c-2.23-1.19-4.47-2.22-6.7-3.07l-1.2-0.44c1.29-0.61,2.54-1.27,3.76-1.97c2.81-1.62,5.41-3.45,7.76-5.49
		c2.38-2.05,4.5-4.28,6.33-6.65c1.84-2.39,3.41-4.94,4.69-7.65c1.29-2.71,2.26-5.53,2.92-8.45c0.65-2.9,0.99-5.92,1.01-9.04v-0.02
		c-0.02-3.7-0.39-7.17-1.1-10.37v-0.01c-0.72-3.26-1.79-6.32-3.22-9.14l-0.01-0.01c-1.43-2.79-3.12-5.35-5.07-7.67v-0.01
		c-1.93-2.29-4.13-4.35-6.58-6.17c-1.87-1.57-3.9-3.01-6.07-4.31c-2.15-1.28-4.43-2.42-6.85-3.42c-2.42-0.99-5.01-1.85-7.76-2.58
		c-2.71-0.72-5.63-1.33-8.73-1.81v-0.01c-3.04-0.47-6.32-0.82-9.84-1.05c-3.51-0.23-7.19-0.35-11.01-0.35
		c-2.5,0-5.18,0.05-8.01,0.13h-0.01c-2.73,0.09-5.35,0.21-7.88,0.36h-0.02c-2.5,0.17-5.01,0.37-7.55,0.62
		c-2.46,0.24-4.83,0.5-7.09,0.81v0c-2.41,0.3-4.56,0.63-6.46,0.96c-2.02,0.35-3.9,0.74-5.64,1.15l-1.87,0.44v1.92v175.35v2.1
		l2.09,0.29C438.74,277.72,440.97,277.98,443.48,278.23L443.48,278.23z M463.79,116.88l-1.17,0.18v53.35h18.5v0.01
		c3.86-0.02,7.45-0.35,10.77-1c3.24-0.63,6.21-1.57,8.88-2.81l0.02-0.01c2.68-1.21,5.02-2.64,7.04-4.28
		c2.01-1.63,3.71-3.49,5.11-5.55l0,0c1.38-2.07,2.43-4.28,3.13-6.64c0.69-2.34,1.04-4.85,1.04-7.51h0.01
		c-0.02-3.2-0.41-6.09-1.16-8.66v-0.01c-0.73-2.5-1.82-4.71-3.25-6.61l-0.01-0.01c-1.45-1.95-3.2-3.63-5.25-5.06
		c-2.07-1.44-4.48-2.62-7.18-3.54h-0.01c-2.78-0.95-5.81-1.67-9.07-2.14c-3.3-0.48-6.83-0.71-10.58-0.69l-0.01,0.01
		c-2.69,0-5.01,0.04-6.95,0.11c-2.14,0.08-4.02,0.2-5.63,0.35h-0.01C466.48,116.52,465.08,116.69,463.79,116.88L463.79,116.88z
		 M479.27,192.46h-16.65v63.57c0.55,0.07,1.11,0.13,1.69,0.19c1.33,0.13,2.8,0.24,4.4,0.33v0c1.61,0.07,3.3,0.12,5.04,0.16
		c1.54,0.03,3.43,0.05,5.78,0.05l0.01,0.01c2.86,0.02,5.68-0.12,8.45-0.4c2.78-0.29,5.53-0.73,8.25-1.32
		c2.64-0.57,5.1-1.32,7.38-2.23c2.28-0.91,4.45-2,6.51-3.29l0,0c1.97-1.24,3.74-2.68,5.29-4.33l0,0c1.53-1.63,2.88-3.47,4.02-5.53
		c1.12-2.02,1.98-4.31,2.57-6.83c0.59-2.57,0.91-5.37,0.93-8.38c-0.02-2.78-0.32-5.41-0.9-7.84c-0.56-2.38-1.39-4.56-2.48-6.53
		v-0.01c-1.1-2.02-2.41-3.85-3.92-5.48c-1.5-1.62-3.24-3.09-5.22-4.38c-2.03-1.33-4.19-2.48-6.48-3.45
		c-2.32-0.98-4.79-1.78-7.41-2.41l0,0.01C491.17,193.11,485.44,192.46,479.27,192.46z"/>
	<path class="st2" d="M20.51,278.23c-2.51-0.25-4.74-0.51-6.66-0.77l-2.09-0.29v-2.1V99.72V97.8l1.87-0.44
		c1.74-0.41,3.62-0.79,5.64-1.15c1.9-0.34,4.06-0.66,6.46-0.96v0c2.26-0.31,4.63-0.58,7.09-0.81c2.54-0.24,5.05-0.45,7.55-0.62h0.02
		c2.53-0.15,5.16-0.27,7.88-0.36h0.01c2.83-0.09,5.51-0.13,8.01-0.13c3.82,0,7.49,0.12,11,0.35c3.52,0.23,6.81,0.58,9.85,1.05v0.01
		c3.1,0.48,6.02,1.09,8.73,1.81c2.74,0.73,5.34,1.59,7.76,2.58c2.42,0.99,4.7,2.13,6.85,3.42c2.17,1.3,4.2,2.75,6.07,4.31
		c2.46,1.82,4.65,3.88,6.58,6.17v0.01c1.95,2.32,3.65,4.88,5.08,7.67l0.01,0.01c1.42,2.83,2.5,5.88,3.22,9.14v0.01
		c0.71,3.21,1.08,6.68,1.09,10.37v0.02c-0.02,3.12-0.36,6.13-1.01,9.03c-0.66,2.92-1.64,5.74-2.92,8.45
		c-1.28,2.71-2.85,5.26-4.69,7.65c-1.84,2.38-3.95,4.6-6.33,6.65c-2.36,2.04-4.95,3.87-7.76,5.49c-1.21,0.7-2.46,1.35-3.76,1.97
		l1.2,0.44c2.23,0.85,4.47,1.87,6.7,3.07l0-0.01c2.24,1.19,4.41,2.57,6.51,4.16c2.07,1.56,4.05,3.29,5.93,5.19l0.02,0.02
		c1.91,1.91,3.64,4.04,5.17,6.37l0,0c1.52,2.31,2.86,4.81,4.02,7.47l0.01,0.02c1.16,2.71,2.04,5.64,2.64,8.74v0.01
		c0.58,3.03,0.89,6.29,0.91,9.75v0.02c-0.02,4.01-0.41,7.78-1.13,11.31c-0.74,3.58-1.84,6.93-3.28,10.04
		c-1.43,3.09-3.12,5.97-5.05,8.64c-1.96,2.71-4.19,5.22-6.66,7.53l0,0c-3.18,3-6.91,5.6-11.16,7.8c-4.22,2.19-8.97,3.98-14.22,5.39
		c-5.18,1.4-10.94,2.44-17.25,3.12c-6.3,0.69-13.12,1.03-20.45,1.03l-0.01-0.01c-4.03-0.02-7.8-0.09-11.29-0.2
		c-3.59-0.11-6.87-0.27-9.82-0.46H28.8C25.88,278.72,23.11,278.49,20.51,278.23L20.51,278.23z M312.2,266.42l-47.15-118.14
		l-1.32-3.31h3.56h25.43h1.68l0.58,1.59l27.81,75.75c0.52,1.4,1.05,2.85,1.59,4.38c0.53,1.49,1.06,3.01,1.57,4.58l-0.01,0
		c0.57,1.72,1.08,3.26,1.5,4.54c0.52,1.6,1,3.1,1.43,4.49v0.01l0.43,1.42c0.5-1.71,1.07-3.65,1.69-5.83l0.01-0.03
		c0.68-2.27,1.39-4.6,2.13-6.97c0.75-2.37,1.52-4.73,2.31-7.07l0,0l25.43-75.22l0.56-1.65h1.73h24.63h3.51l-1.25,3.28l-34.96,91.38
		l0,0c-2.07,5.47-4.09,10.65-6.04,15.53c-1.99,4.96-3.87,9.52-5.65,13.66h-0.01c-1.84,4.26-3.66,8.27-5.44,12l0.01,0
		c-1.77,3.71-3.54,7.19-5.29,10.43c-1.73,3.23-3.49,6.25-5.27,9.09c-1.78,2.84-3.57,5.45-5.39,7.85l0,0
		c-1.78,2.38-3.65,4.64-5.62,6.78c-1.94,2.12-3.92,4.06-5.93,5.85l-0.06,0.05c-2.05,1.71-4.03,3.23-5.92,4.56
		c-1.94,1.36-3.85,2.58-5.72,3.63c-1.79,1.02-3.56,1.96-5.32,2.81l0,0c-1.71,0.82-3.35,1.53-4.93,2.12l-0.03,0.02
		c-1.5,0.54-2.92,1-4.22,1.37c-1.31,0.37-2.51,0.66-3.59,0.85l-2.11,0.38l-0.62-2.07l-5.83-19.34l-0.69-2.28l2.29-0.72
		c1.4-0.44,2.88-1,4.43-1.66l0,0c1.6-0.69,3.26-1.48,4.95-2.35l0-0.01c1.77-0.94,3.48-1.97,5.11-3.08c1.66-1.12,3.35-2.4,5.07-3.84
		l0.07-0.05c1.53-1.2,3.11-2.63,4.72-4.3c1.64-1.69,3.31-3.6,4.98-5.72v-0.01c1.69-2.12,3.29-4.43,4.81-6.93
		c1.54-2.52,2.99-5.23,4.37-8.09h0c0.23-0.51,0.46-1.05,0.7-1.63c0.19-0.46,0.39-0.95,0.57-1.42c0.13-0.35,0.23-0.66,0.29-0.94
		l0.01-0.02c0.04-0.2,0.07-0.39,0.07-0.57c0-0.2-0.02-0.43-0.07-0.69c-0.06-0.35-0.15-0.71-0.26-1.08l-0.03-0.08
		c-0.1-0.37-0.26-0.83-0.47-1.36c-0.23-0.59-0.5-1.22-0.81-1.89L312.2,266.42L312.2,266.42z M226.65,144.98h23.31h2.42v2.42v92.97
		c0,3.89,0.02,7.12,0.05,9.76c0.04,3.11,0.1,6.14,0.16,9.06c0.08,2.86,0.2,5.66,0.34,8.43c0.13,2.58,0.3,5.17,0.5,7.78l0.2,2.61
		h-2.61h-20.66h-2.27l-0.14-2.27l-0.92-14.48c-0.8,1.03-1.66,2.06-2.59,3.09c-1.28,1.45-2.72,2.86-4.31,4.23
		c-1.58,1.37-3.29,2.67-5.1,3.89l0,0c-1.84,1.26-3.84,2.39-5.98,3.4c-2.14,1.01-4.4,1.89-6.79,2.64v0
		c-2.41,0.79-4.97,1.38-7.67,1.78c-2.64,0.39-5.46,0.6-8.45,0.62c-2.69,0.02-5.39-0.18-8.08-0.6c-2.69-0.43-5.39-1.09-8.1-1.99
		c-2.78-0.93-5.45-2.18-8-3.75c-2.51-1.56-4.92-3.43-7.19-5.64c-2.31-2.22-4.41-4.86-6.27-7.91c-1.83-3-3.44-6.39-4.82-10.17
		l-0.01-0.02c-1.36-3.82-2.39-8.12-3.09-12.9c-0.69-4.68-1.06-9.87-1.1-15.56l-0.01-0.02V147.4v-2.42h2.42h23.31h2.42v2.42v70.72
		l-0.01,0.01c-0.02,3.97,0.19,7.7,0.64,11.17v0.01c0.44,3.43,1.12,6.62,2.03,9.56l0.01,0.02c0.86,2.88,2,5.42,3.39,7.62l0,0
		c1.38,2.18,3.02,4.04,4.89,5.59l0,0c1.89,1.51,4.09,2.67,6.6,3.45c2.55,0.79,5.42,1.21,8.61,1.23c2.42-0.04,4.73-0.31,6.92-0.82
		c2.13-0.49,4.14-1.21,6-2.15l0,0c1.89-0.97,3.66-2.08,5.3-3.33c1.6-1.22,3.05-2.58,4.34-4.05c1.33-1.53,2.49-3.1,3.47-4.69
		c0.98-1.59,1.8-3.21,2.45-4.88l0.02-0.06c0.3-0.71,0.57-1.5,0.8-2.32c0.23-0.83,0.44-1.71,0.59-2.63l0.01-0.06
		c0.18-0.92,0.31-1.89,0.4-2.89c0.08-1,0.13-2.03,0.13-3.1v-78.4v-2.42H226.65L226.65,144.98z M40.82,116.88l-1.17,0.18v53.35h18.5
		v0.01c3.86-0.02,7.45-0.35,10.77-0.99c3.25-0.63,6.21-1.57,8.88-2.8l0.02-0.01c2.67-1.21,5.02-2.64,7.04-4.28
		c2.01-1.63,3.71-3.49,5.11-5.55l0,0c1.38-2.07,2.43-4.28,3.13-6.63c0.69-2.34,1.04-4.85,1.04-7.51h0.01
		c-0.02-3.2-0.41-6.09-1.16-8.66v-0.01c-0.73-2.5-1.82-4.71-3.25-6.61l-0.01-0.01c-1.45-1.95-3.2-3.63-5.25-5.05
		c-2.07-1.44-4.47-2.62-7.18-3.54h-0.01c-2.78-0.96-5.81-1.68-9.07-2.15c-3.3-0.48-6.83-0.71-10.58-0.69l-0.01,0.01
		c-2.69,0-5.01,0.04-6.95,0.11c-2.13,0.08-4.02,0.2-5.63,0.35h-0.01C43.51,116.52,42.1,116.69,40.82,116.88L40.82,116.88z
		 M56.3,192.46H39.65v63.57c0.54,0.07,1.11,0.13,1.69,0.19c1.33,0.13,2.8,0.24,4.4,0.33v0c1.61,0.06,3.3,0.12,5.04,0.16
		c1.54,0.03,3.43,0.05,5.77,0.05l0.01,0.01c2.86,0.02,5.68-0.12,8.45-0.4c2.78-0.29,5.53-0.73,8.25-1.32
		c2.64-0.57,5.1-1.32,7.38-2.23c2.28-0.91,4.45-2,6.51-3.29l0,0c1.97-1.24,3.74-2.68,5.29-4.33l0,0c1.54-1.63,2.88-3.47,4.02-5.53
		c1.12-2.03,1.98-4.31,2.57-6.83c0.59-2.57,0.91-5.37,0.93-8.38c-0.02-2.78-0.32-5.4-0.9-7.84c-0.56-2.38-1.39-4.56-2.47-6.53v-0.01
		c-1.1-2.01-2.41-3.84-3.92-5.48c-1.5-1.62-3.24-3.09-5.22-4.38c-2.03-1.33-4.19-2.48-6.48-3.45c-2.32-0.98-4.79-1.78-7.41-2.41
		l0,0.01C68.2,193.11,62.46,192.46,56.3,192.46z"/>
	<g class="st0">
		<g class="st3">
			<path class="st4" d="M577,120.88c7.72,0,7.73-12,0-12C569.28,108.88,569.27,120.88,577,120.88L577,120.88z"/>
		</g>
	</g>
	<g class="st0">
		<g class="st3">
			<path class="st4" d="M591,105.88c7.72,0,7.73-12,0-12C583.28,93.88,583.27,105.88,591,105.88L591,105.88z"/>
		</g>
	</g>
</g>
</svg>
